<svg width="586" height="522" viewBox="0 0 586 522" fill="none" xmlns="http://www.w3.org/2000/svg">
<path d="M481.794 169.032C475.56 166.892 469.276 164.905 462.94 163.07C463.993 158.79 464.97 154.492 465.87 150.178C480.138 80.8772 470.813 25.0289 438.914 6.63358C408.34 -10.9974 358.352 7.39792 307.854 51.3479C302.877 55.6792 298.019 60.1379 293.28 64.724C290.104 61.6666 286.877 58.6772 283.599 55.7557C230.655 8.79923 177.583 -10.9719 145.736 7.4234C115.238 25.1053 106.193 77.616 118.983 143.299C120.291 149.804 121.735 156.276 123.315 162.713C115.85 164.854 108.588 167.121 101.658 169.542C39.6187 191.198 0 225.084 0 260.244C0 296.551 42.5487 332.985 107.162 355.023C112.393 356.824 117.676 358.488 123.009 360.017C121.277 366.93 119.748 373.894 118.423 380.909C106.142 445.446 115.722 496.708 146.194 514.288C177.634 532.428 230.425 513.778 281.866 468.835C285.943 465.302 290.019 461.548 294.096 457.573C299.225 462.55 304.491 467.374 309.892 472.045C359.728 514.899 408.901 532.174 439.322 514.594C470.787 496.377 481.004 441.318 467.73 374.336C466.711 369.24 465.539 364.026 464.214 358.692C467.917 357.605 471.552 356.476 475.119 355.304C542.305 333.036 586 297.035 586 260.244C586 224.931 545.107 190.816 481.794 169.032ZM324.338 70.2528C367.6 32.5959 408.034 17.7676 426.506 28.3665C446.124 39.6789 453.717 85.3104 441.385 145.159C440.587 149.066 439.712 152.947 438.761 156.802C412.939 150.949 386.758 146.813 360.39 144.42C345.281 122.717 328.725 102.058 310.835 82.5843C315.217 78.3719 319.701 74.2614 324.287 70.2528H324.338ZM172.997 290.232C178.314 300.491 183.86 310.598 189.635 320.551C195.529 330.743 201.66 340.789 208.03 350.692C189.889 348.731 171.861 345.839 154.016 342.029C159.214 325.29 165.583 307.888 173.023 290.258L172.997 290.232ZM172.997 231.377C165.711 214.103 159.494 197.109 154.398 180.676C171.087 176.93 188.921 173.873 207.495 171.554C201.278 181.236 195.291 191.088 189.533 201.109C183.758 211.063 178.263 221.152 172.997 231.377ZM186.297 260.83C194.008 244.779 202.331 229.033 211.266 213.593C220.132 198.137 229.593 183.062 239.649 168.37C257.076 167.045 274.936 166.331 293 166.331C311.141 166.331 329.026 167.045 346.453 168.37C356.39 183.062 365.8 198.094 374.683 213.466C383.618 228.855 392.042 244.524 399.958 260.473C392.144 276.576 383.754 292.389 374.785 307.914C365.902 323.337 356.526 338.454 346.657 353.265C329.281 354.539 311.319 355.151 293 355.151C274.758 355.151 257.025 354.59 239.954 353.469C229.831 338.692 220.285 323.549 211.317 308.041C202.382 292.585 194.042 276.839 186.297 260.805V260.83ZM396.493 320.449C402.37 310.207 408.026 299.846 413.461 289.366C420.906 306.203 427.471 323.416 433.13 340.934C415.088 344.983 396.846 348.087 378.48 350.233C384.662 340.416 390.658 330.479 396.467 320.424L396.493 320.449ZM413.206 231.403C407.805 221.144 402.2 210.986 396.391 200.931C390.65 191.045 384.705 181.279 378.556 171.631C397.232 174 415.143 177.134 431.984 180.981C426.577 198.102 420.31 214.913 413.206 231.403ZM293.255 100.546C305.448 113.834 316.962 127.729 327.752 142.178C304.686 141.074 281.603 141.074 258.502 142.178C269.891 127.146 281.535 113.184 293.255 100.546ZM158.322 29.0799C177.94 17.7421 221.253 33.9208 266.961 74.5077C269.891 77.1065 272.821 79.8071 275.751 82.6097C257.758 102.087 241.075 122.736 225.814 144.42C199.523 146.78 173.413 150.84 147.647 156.573C146.152 150.594 144.81 144.564 143.621 138.484V138.535C132.589 82.2276 139.901 39.7808 158.322 29.1309V29.0799ZM129.684 335.915C124.843 334.522 120.037 333.019 115.264 331.405C90.4326 323.594 67.2517 311.278 46.88 295.073C41.0503 291.065 36.1047 285.905 32.3491 279.91C28.5934 273.915 26.1075 267.213 25.0451 260.219C25.0451 238.893 56.842 211.683 109.888 193.211C116.563 190.867 123.289 188.744 130.067 186.841C137.937 212.106 147.47 236.823 158.602 260.83C147.329 285.186 137.678 310.261 129.71 335.889L129.684 335.915ZM265.382 450.057C246.214 467.639 223.975 481.544 199.775 491.077C193.401 494.133 186.467 495.85 179.403 496.122C172.339 496.394 165.294 495.214 158.704 492.657C140.232 481.956 132.538 440.834 143.009 385.648C144.266 379.109 145.693 372.62 147.29 366.183C173.329 371.77 199.717 375.583 226.272 377.597C241.658 399.398 258.458 420.166 276.566 439.764C272.932 443.28 269.212 446.703 265.407 450.032L265.382 450.057ZM293.968 421.725C282.095 408.935 270.273 394.769 258.706 379.533C269.917 379.975 281.348 380.196 293 380.196C304.941 380.196 316.729 379.941 328.364 379.431C317.628 394.108 306.148 408.224 293.968 421.725ZM445.997 456.554C445.457 463.608 443.477 470.477 440.177 476.735C436.877 482.993 432.328 488.507 426.812 492.937C408.34 503.638 368.849 489.727 326.249 453.089C321.374 448.911 316.465 444.444 311.523 439.688C329.283 420.027 345.694 399.189 360.645 377.317C387.349 375.065 413.866 370.979 440.01 365.087C441.199 369.911 442.252 374.633 443.169 379.253C448.839 404.638 449.789 430.85 445.971 456.58L445.997 456.554ZM467.246 331.532C464.01 332.602 460.723 333.622 457.36 334.59C449.171 309.206 439.262 284.409 427.704 260.372C438.836 236.661 448.369 212.232 456.239 187.249C462.201 188.956 468.036 190.816 473.641 192.727C527.91 211.377 560.98 238.995 560.98 260.244C560.98 282.92 525.234 312.322 467.22 331.532H467.246Z" fill="#F45454" fill-opacity="0.2"/>
<path d="M293 207.912C303.352 207.912 313.472 210.982 322.08 216.735C330.687 222.488 337.394 230.664 341.354 240.229C345.313 249.795 346.346 260.32 344.323 270.473C342.3 280.625 337.31 289.95 329.986 297.267C322.663 304.584 313.333 309.564 303.178 311.577C293.023 313.591 282.5 312.547 272.938 308.578C263.376 304.61 255.207 297.894 249.462 289.281C243.718 280.669 240.658 270.546 240.668 260.193C240.688 246.327 246.21 233.036 256.022 223.238C265.834 213.44 279.134 207.912 293 207.912Z" fill="#F45454" fill-opacity="0.2"/>
</svg>
